<svg width="127" height="127" viewBox="0 0 127 127" fill="none" xmlns="http://www.w3.org/2000/svg">
<path d="M14.1111 127C10.2306 127 6.90974 125.619 4.14867 122.858C1.38759 120.097 0.0047037 116.774 0 112.889V14.1111C0 10.2306 1.38289 6.90974 4.14867 4.14867C6.91444 1.38759 10.2353 0.0047037 14.1111 0H112.889C116.769 0 120.093 1.38289 122.858 4.14867C125.624 6.91444 127.005 10.2353 127 14.1111V112.889C127 116.769 125.619 120.093 122.858 122.858C120.097 125.624 116.774 127.005 112.889 127H14.1111ZM14.1111 112.889H112.889V14.1111H14.1111V112.889ZM21.1667 98.7778H105.833L79.375 63.5L58.2083 91.7222L42.3333 70.5555L21.1667 98.7778Z" fill="white"/>
</svg>
