<svg width="40" height="40" viewBox="0 0 40 40" fill="none" xmlns="http://www.w3.org/2000/svg">
<path d="M20 26C23.2124 26 28.0858 26.8142 32.1309 28.4346C34.1526 29.2445 35.9053 30.2315 37.1357 31.3672C38.3592 32.4965 39 33.7049 39 35V39H1V35C1 33.7049 1.64079 32.4965 2.86426 31.3672C4.09472 30.2315 5.84736 29.2445 7.86914 28.4346C11.9142 26.8142 16.7876 26 20 26ZM20 1C24.9727 1 29 5.02728 29 10C29 14.9727 24.9727 19 20 19C15.0273 19 11 14.9727 11 10C11 5.02728 15.0273 1 20 1Z" fill="white" stroke="#16202D" stroke-width="2"/>
</svg>
